<?xml version="1.0" encoding="UTF-8"?>
<svg width="26px" height="26px" viewBox="0 0 26 26" version="1.1" xmlns="http://www.w3.org/2000/svg" xmlns:xlink="http://www.w3.org/1999/xlink">
    <!-- Generator: sketchtool 52.6 (67491) - http://www.bohemiancoding.com/sketch -->
    <title>9AB3E6D3-C755-4956-AAD5-4C4B2CFDAAE3</title>
    <desc>Created with sketchtool.</desc>
    <g id="Maquetas" stroke="none" stroke-width="1" fill="none" fill-rule="evenodd">
        <g id="Mobile-Menu" transform="translate(-16.000000, -1515.000000)" fill="#999999">
            <g id="UI" transform="translate(-62.000000, 0.000000)">
                <g id="Footer" transform="translate(76.000000, 1515.000000)">
                    <g id="Socials" transform="translate(2.000000, 0.000000)">
                        <path d="M24.2913236,0 L1.42299277,0 C0.636161473,0 0,0.636161473 0,1.42299277 L0,24.2913236 C0,25.0781549 0.636161473,25.7143164 1.42299277,25.7143164 L13.7276949,25.7143164 L13.7276949,15.753367 L10.3794767,15.753367 L10.3794767,11.8694338 L13.7276949,11.8694338 L13.7276949,9.00670717 C13.7276949,5.69197107 15.7701081,3.8839332 18.7332813,3.8839332 C20.1395329,3.8839332 21.3616326,3.98437975 21.7131955,4.03460302 L21.7131955,7.50000894 L19.6707824,7.51675003 C18.0468965,7.51675003 17.7455569,8.27009914 17.7455569,9.39175227 L17.7455569,11.8694338 L21.5792668,11.8694338 L21.0770341,15.753367 L17.7455569,15.753367 L17.7455569,25.7143164 L24.2913236,25.7143164 C25.0781549,25.7143164 25.7143164,25.0781549 25.7143164,24.2913236 L25.7143164,1.42299277 C25.7143164,0.636161473 25.0781549,0 24.2913236,0 L24.2913236,0 Z" id="ic-facebook"></path>
                    </g>
                </g>
            </g>
        </g>
    </g>
</svg>