<?xml version="1.0" encoding="UTF-8"?>
<svg width="27px" height="26px" viewBox="0 0 27 26" version="1.1" xmlns="http://www.w3.org/2000/svg" xmlns:xlink="http://www.w3.org/1999/xlink">
    <!-- Generator: sketchtool 52.6 (67491) - http://www.bohemiancoding.com/sketch -->
    <title>87C25117-6845-4FE0-A269-875239EBC4C2</title>
    <desc>Created with sketchtool.</desc>
    <g id="Maquetas" stroke="none" stroke-width="1" fill="none" fill-rule="evenodd">
        <g id="Mobile-Menu" transform="translate(-65.000000, -1515.000000)" fill="#999999">
            <g id="UI" transform="translate(-62.000000, 0.000000)">
                <g id="Footer" transform="translate(76.000000, 1515.000000)">
                    <g id="Socials" transform="translate(2.000000, 0.000000)">
                        <path d="M66.8582403,12.8582045 C66.8582403,15.2186984 64.9330148,17.1439239 62.5725209,17.1439239 C60.212027,17.1439239 58.2868015,15.2186984 58.2868015,12.8582045 C58.2868015,10.4977106 60.212027,8.57248511 62.5725209,8.57248511 C64.9330148,8.57248511 66.8582403,10.4977106 66.8582403,12.8582045 L66.8582403,12.8582045 Z M69.1685109,12.8582045 C69.1685109,9.20864658 66.2220788,6.2622145 62.5725209,6.2622145 C58.9229629,6.2622145 55.9765309,9.20864658 55.9765309,12.8582045 C55.9765309,16.5077624 58.9229629,19.4541945 62.5725209,19.4541945 C66.2220788,19.4541945 69.1685109,16.5077624 69.1685109,12.8582045 L69.1685109,12.8582045 Z M70.9765487,5.99435703 C70.9765487,5.14056137 70.290164,4.45417663 69.4363683,4.45417663 C68.5825727,4.45417663 67.8961879,5.14056137 67.8961879,5.99435703 C67.8961879,6.84815269 68.5825727,7.53453744 69.4363683,7.53453744 C70.290164,7.53453744 70.9765487,6.84815269 70.9765487,5.99435703 L70.9765487,5.99435703 Z M62.5725209,2.31131693 C64.4475231,2.31131693 68.465385,2.16064711 70.1562353,2.83029076 C70.7421735,3.06466604 71.1774418,3.3492646 71.6294513,3.80127406 C72.0814608,4.25328353 72.3660593,4.68855191 72.6004346,5.2744901 C73.2700783,6.96534033 73.1194084,10.9832023 73.1194084,12.8582045 C73.1194084,14.7332067 73.2700783,18.7510687 72.6004346,20.4419189 C72.3660593,21.0278571 72.0814608,21.4631255 71.6294513,21.9151349 C71.1774418,22.3671444 70.7421735,22.651743 70.1562353,22.8861182 C68.465385,23.5557619 64.4475231,23.4050921 62.5725209,23.4050921 C60.6975186,23.4050921 56.6796567,23.5557619 54.9888065,22.8861182 C54.4028683,22.651743 53.9675999,22.3671444 53.5155904,21.9151349 C53.063581,21.4631255 52.7789824,21.0278571 52.5446071,20.4419189 C51.8749635,18.7510687 52.0256333,14.7332067 52.0256333,12.8582045 C52.0256333,10.9832023 51.8749635,6.96534033 52.5446071,5.2744901 C52.7789824,4.68855191 53.063581,4.25328353 53.5155904,3.80127406 C53.9675999,3.3492646 54.4028683,3.06466604 54.9888065,2.83029076 C56.6796567,2.16064711 60.6975186,2.31131693 62.5725209,2.31131693 L62.5725209,2.31131693 Z M75.4296791,12.8582045 C75.4296791,11.0836488 75.4464201,9.32583422 75.3459736,7.55127853 C75.245527,5.49212429 74.7767765,3.66734533 73.2700783,2.16064711 C71.76338,0.653948882 69.9386011,0.185198323 67.8794468,0.0847517751 C66.1048912,-0.0156947732 64.3470766,0.00104631821 62.5725209,0.00104631821 C60.7979652,0.00104631821 59.0401506,-0.0156947732 57.2655949,0.0847517751 C55.2064407,0.185198323 53.3816617,0.653948882 51.8749635,2.16064711 C50.3682653,3.66734533 49.8995147,5.49212429 49.7990681,7.55127853 C49.6986216,9.32583422 49.7153627,11.0836488 49.7153627,12.8582045 C49.7153627,14.6327602 49.6986216,16.3905748 49.7990681,18.1651305 C49.8995147,20.2242847 50.3682653,22.0490637 51.8749635,23.5557619 C53.3816617,25.0624601 55.2064407,25.5312107 57.2655949,25.6316572 C59.0401506,25.7321038 60.7979652,25.7153627 62.5725209,25.7153627 C64.3470766,25.7153627 66.1048912,25.7321038 67.8794468,25.6316572 C69.9386011,25.5312107 71.76338,25.0624601 73.2700783,23.5557619 C74.7767765,22.0490637 75.245527,20.2242847 75.3459736,18.1651305 C75.4464201,16.3905748 75.4296791,14.6327602 75.4296791,12.8582045 L75.4296791,12.8582045 Z" id="ic-instagram"></path>
                    </g>
                </g>
            </g>
        </g>
    </g>
</svg>