<?xml version="1.0" encoding="UTF-8"?>
<svg width="27px" height="22px" viewBox="0 0 27 22" version="1.1" xmlns="http://www.w3.org/2000/svg" xmlns:xlink="http://www.w3.org/1999/xlink">
    <!-- Generator: sketchtool 52.6 (67491) - http://www.bohemiancoding.com/sketch -->
    <title>9294E9FD-3762-408A-B329-BFAD712A27C1</title>
    <desc>Created with sketchtool.</desc>
    <g id="Maquetas" stroke="none" stroke-width="1" fill="none" fill-rule="evenodd">
        <g id="Mobile-Menu" transform="translate(-115.000000, -1517.000000)" fill="#999999">
            <g id="UI" transform="translate(-62.000000, 0.000000)">
                <g id="Footer" transform="translate(76.000000, 1515.000000)">
                    <g id="Socials" transform="translate(2.000000, 0.000000)">
                        <path d="M125.814685,4.54464589 C124.843702,4.96317318 123.789013,5.26451282 122.700842,5.38170046 C123.822496,4.7120568 124.676291,3.65736805 125.078077,2.40178619 C124.04013,3.02120657 122.868253,3.47321604 121.646154,3.70759132 C120.658429,2.65290256 119.252178,2 117.695256,2 C114.698601,2 112.287884,4.42745825 112.287884,7.40737252 C112.287884,7.8258998 112.338107,8.24442709 112.421812,8.64621328 C107.9352,8.411838 103.934079,6.2689783 101.272245,2.98772439 C100.803495,3.79129678 100.535637,4.7120568 100.535637,5.71652229 C100.535637,7.59152452 101.48988,9.24889257 102.946355,10.2198759 C102.059077,10.1863937 101.222022,9.93527732 100.502155,9.53349112 L100.502155,9.60045549 C100.502155,12.2288068 102.360416,14.4051487 104.838098,14.9073815 C104.386088,15.0245691 103.900597,15.0915335 103.415105,15.0915335 C103.063542,15.0915335 102.72872,15.0580513 102.393899,15.007828 C103.080283,17.1506877 105.072473,18.7076092 107.449708,18.7578325 C105.591447,20.2143074 103.264435,21.0681031 100.736531,21.0681031 C100.284521,21.0681031 99.8659937,21.051362 99.4307254,21.0011387 C101.824701,22.5413191 104.670687,23.428597 107.734307,23.428597 C117.678515,23.428597 123.11937,15.19198 123.11937,8.04353399 C123.11937,7.80915871 123.11937,7.57478343 123.102629,7.34040815 C124.157317,6.57031795 125.078077,5.61607574 125.814685,4.54464589 L125.814685,4.54464589 Z" id="ic-twitter"></path>
                    </g>
                </g>
            </g>
        </g>
    </g>
</svg>