<?xml version="1.0" encoding="UTF-8"?>
<svg width="30px" height="22px" viewBox="0 0 30 22" version="1.1" xmlns="http://www.w3.org/2000/svg" xmlns:xlink="http://www.w3.org/1999/xlink">
    <!-- Generator: sketchtool 52.6 (67491) - http://www.bohemiancoding.com/sketch -->
    <title>0F420C77-68B3-42B8-B622-0C276D064191</title>
    <desc>Created with sketchtool.</desc>
    <g id="Maquetas" stroke="none" stroke-width="1" fill="none" fill-rule="evenodd">
        <g id="Mobile-Menu" transform="translate(-166.000000, -1517.000000)" fill="#999999">
            <g id="UI" transform="translate(-62.000000, 0.000000)">
                <g id="Footer" transform="translate(76.000000, 1515.000000)">
                    <g id="Socials" transform="translate(2.000000, 0.000000)">
                        <path d="M179.381338,6.81445312 C179.49462,8.85352582 179.55126,10.8736879 179.55126,12.875 C179.55126,14.8763121 179.49462,16.8964742 179.381338,18.9355469 C179.381338,20.2194075 178.975418,21.3050086 178.163565,22.1923828 C177.351712,23.079757 176.360511,23.5234375 175.189932,23.5234375 C172.282365,23.6744799 168.902842,23.75 165.05126,23.75 C161.199678,23.75 157.820155,23.6744799 154.912588,23.5234375 C153.74201,23.5234375 152.750809,23.079757 151.938956,22.1923828 C151.127103,21.3050086 150.721182,20.2194075 150.721182,18.9355469 C150.6079,16.8964742 150.55126,14.8763121 150.55126,12.875 C150.55126,11.5533788 150.62678,9.53321672 150.777823,6.81445312 C150.777823,5.53059254 151.174303,4.44499142 151.967276,3.55761719 C152.760249,2.67024296 153.74201,2.2265625 154.912588,2.2265625 C157.669113,2.07552008 160.878716,2 164.541495,2 L165.05126,2 L165.561026,2 C169.223805,2 172.433408,2.07552008 175.189932,2.2265625 C176.360511,2.2265625 177.351712,2.67024296 178.163565,3.55761719 C178.975418,4.44499142 179.381338,5.53059254 179.381338,6.81445312 L179.381338,6.81445312 Z M162.27587,18.4257812 L170.48876,12.875 L162.27587,7.26757812 L162.27587,18.4257812 Z" id="ic-youtube"></path>
                    </g>
                </g>
            </g>
        </g>
    </g>
</svg>