<?xml version="1.0" encoding="UTF-8"?>
<svg width="16px" height="16px" viewBox="0 0 16 16" version="1.1" xmlns="http://www.w3.org/2000/svg" xmlns:xlink="http://www.w3.org/1999/xlink">
    <!-- Generator: sketchtool 55.2 (78181) - https://sketchapp.com -->
    <title>CFE3ADA2-C3C6-4683-8FB6-8FAD01C8A8E0</title>
    <desc>Created with sketchtool.</desc>
    <g id="Maquetas" stroke="none" stroke-width="1" fill="none" fill-rule="evenodd">
        <g id="Modal" transform="translate(-1193.000000, -34.000000)" stroke="#FFFFFF">
            <g id="Group">
                <g id="TOP" transform="translate(165.000000, 20.000000)">
                    <g id="Bell" transform="translate(1029.000000, 14.000000)">
                        <g id="bell">
                            <g>
                                <path d="M5.21527405,13.5936853 C5.20678107,13.6570562 5.20192369,13.7214938 5.20192369,13.7869981 C5.20192369,14.6557571 5.96924172,15.3600032 6.91577645,15.3600032 C7.86234098,15.3600032 8.62965902,14.6557571 8.62965902,13.7869981 C8.62965902,13.7214938 8.62477183,13.6570562 8.61630865,13.5936853 L5.21527405,13.5936853 Z" id="Fill-1"></path>
                                <path d="M12.4337876,10.9310805 L12.4162321,10.9310805 C11.9687429,10.8058794 11.6417644,10.4084576 11.6417644,9.93718702 L11.6417644,7.29646055 C11.6417644,7.29363434 11.6416176,7.29086465 11.6416176,7.2880667 C11.6432322,7.23903195 11.6443184,7.18985588 11.6443184,7.14042546 C11.6443184,4.61930422 9.52136494,2.57550171 6.90257124,2.57550171 C4.28374819,2.57550171 2.1607947,4.61930422 2.1607947,7.14042546 C2.1607947,7.1713442 2.16138184,7.20212164 2.16199834,7.23289907 C2.16173413,7.25409565 2.1607947,7.27517918 2.1607947,7.29646055 L2.1607947,9.93718702 C2.1607947,10.4084576 1.83352255,10.8058794 1.3859453,10.9310805 L1.36836044,10.9310805 C0.612622464,10.9310805 0,11.5208542 0,12.2484338 C0,12.975957 0.612622464,13.5658154 1.36836044,13.5658154 L12.4337876,13.5658154 C13.1895256,13.5658154 13.8021774,12.975957 13.8021774,12.2484338 C13.8021774,11.5208542 13.1895256,10.9310805 12.4337876,10.9310805" id="Fill-4"></path>
                                <ellipse id="Oval" cx="7" cy="1.58763306" rx="1" ry="1"></ellipse>
                            </g>
                        </g>
                    </g>
                </g>
            </g>
        </g>
    </g>
</svg>